<?xml version="1.0" encoding="UTF-8" standalone="no"?>
<!-- Created with Inkscape (http://www.inkscape.org/) -->

<svg
   version="1.1"
   id="svg2"
   width="302.36267"
   height="132.28346"
   viewBox="0 0 302.36267 132.28346"
   sodipodi:docname="ArtDruk_logo30.ai"
   xmlns:inkscape="http://www.inkscape.org/namespaces/inkscape"
   xmlns:sodipodi="http://sodipodi.sourceforge.net/DTD/sodipodi-0.dtd"
   xmlns="http://www.w3.org/2000/svg"
   xmlns:svg="http://www.w3.org/2000/svg">
  <defs
     id="defs6">
    <linearGradient
       x1="0"
       y1="0"
       x2="1"
       y2="0"
       gradientUnits="userSpaceOnUse"
       gradientTransform="matrix(0,103.8684,103.8684,0,32.083527,-15.019103)"
       spreadMethod="pad"
       id="linearGradient44">
      <stop
         style="stop-opacity:1;stop-color:#f5d146"
         offset="0"
         id="stop22" />
      <stop
         style="stop-opacity:1;stop-color:#ba6d1f"
         offset="0.294645"
         id="stop24" />
      <stop
         style="stop-opacity:1;stop-color:#f4d255"
         offset="0.54783278"
         id="stop26" />
      <stop
         style="stop-opacity:1;stop-color:#f4d255"
         offset="0.55198"
         id="stop28" />
      <stop
         style="stop-opacity:1;stop-color:#f8df7f"
         offset="0.63044381"
         id="stop30" />
      <stop
         style="stop-opacity:1;stop-color:#f8df7f"
         offset="0.645042"
         id="stop32" />
      <stop
         style="stop-opacity:1;stop-color:#f4d255"
         offset="0.70259827"
         id="stop34" />
      <stop
         style="stop-opacity:1;stop-color:#f4d255"
         offset="0.714235"
         id="stop36" />
      <stop
         style="stop-opacity:1;stop-color:#d19a30"
         offset="0.90839041"
         id="stop38" />
      <stop
         style="stop-opacity:1;stop-color:#d19a30"
         offset="0.935644"
         id="stop40" />
      <stop
         style="stop-opacity:1;stop-color:#d19a30"
         offset="1"
         id="stop42" />
    </linearGradient>
    <linearGradient
       x1="0"
       y1="0"
       x2="1"
       y2="0"
       gradientUnits="userSpaceOnUse"
       gradientTransform="matrix(0,63.720406,63.720406,0,28.722006,2.1993334)"
       spreadMethod="pad"
       id="linearGradient84">
      <stop
         style="stop-opacity:1;stop-color:#f5d146"
         offset="0"
         id="stop60" />
      <stop
         style="stop-opacity:1;stop-color:#f5d146"
         offset="0.156757"
         id="stop62" />
      <stop
         style="stop-opacity:1;stop-color:#ba6d1f"
         offset="0.30005"
         id="stop64" />
      <stop
         style="stop-opacity:1;stop-color:#f4d255"
         offset="0.45750882"
         id="stop66" />
      <stop
         style="stop-opacity:1;stop-color:#f4d255"
         offset="0.460088"
         id="stop68" />
      <stop
         style="stop-opacity:1;stop-color:#f8df7f"
         offset="0.5658972"
         id="stop70" />
      <stop
         style="stop-opacity:1;stop-color:#f8df7f"
         offset="0.585583"
         id="stop72" />
      <stop
         style="stop-opacity:1;stop-color:#f4d255"
         offset="0.64763527"
         id="stop74" />
      <stop
         style="stop-opacity:1;stop-color:#f4d255"
         offset="0.660181"
         id="stop76" />
      <stop
         style="stop-opacity:1;stop-color:#c2912c"
         offset="0.75005534"
         id="stop78" />
      <stop
         style="stop-opacity:1;stop-color:#c2912c"
         offset="0.762671"
         id="stop80" />
      <stop
         style="stop-opacity:1;stop-color:#c2912c"
         offset="1"
         id="stop82" />
    </linearGradient>
    <clipPath
       clipPathUnits="userSpaceOnUse"
       id="clipPath94">
      <path
         d="M 0,99.213 H 226.772 V 0 H 0 Z"
         id="path92" />
    </clipPath>
    <linearGradient
       x1="0"
       y1="0"
       x2="1"
       y2="0"
       gradientUnits="userSpaceOnUse"
       gradientTransform="matrix(0,78.715385,78.715385,0,73.574951,69.105873)"
       spreadMethod="pad"
       id="linearGradient142">
      <stop
         style="stop-opacity:1;stop-color:#f5d146"
         offset="0"
         id="stop120" />
      <stop
         style="stop-opacity:1;stop-color:#ba6d1f"
         offset="0.294645"
         id="stop122" />
      <stop
         style="stop-opacity:1;stop-color:#f4d255"
         offset="0.54783278"
         id="stop124" />
      <stop
         style="stop-opacity:1;stop-color:#f4d255"
         offset="0.55198"
         id="stop126" />
      <stop
         style="stop-opacity:1;stop-color:#f8df7f"
         offset="0.63044381"
         id="stop128" />
      <stop
         style="stop-opacity:1;stop-color:#f8df7f"
         offset="0.645042"
         id="stop130" />
      <stop
         style="stop-opacity:1;stop-color:#f4d255"
         offset="0.70259827"
         id="stop132" />
      <stop
         style="stop-opacity:1;stop-color:#f4d255"
         offset="0.714235"
         id="stop134" />
      <stop
         style="stop-opacity:1;stop-color:#d19a30"
         offset="0.90839041"
         id="stop136" />
      <stop
         style="stop-opacity:1;stop-color:#d19a30"
         offset="0.935644"
         id="stop138" />
      <stop
         style="stop-opacity:1;stop-color:#d19a30"
         offset="1"
         id="stop140" />
    </linearGradient>
    <linearGradient
       x1="0"
       y1="0"
       x2="1"
       y2="0"
       gradientUnits="userSpaceOnUse"
       gradientTransform="matrix(0,-54.198998,-54.198998,0,63.921486,33.264378)"
       spreadMethod="pad"
       id="linearGradient178">
      <stop
         style="stop-opacity:1;stop-color:#f5d146"
         offset="0"
         id="stop158" />
      <stop
         style="stop-opacity:1;stop-color:#ba6d1f"
         offset="0.202703"
         id="stop160" />
      <stop
         style="stop-opacity:1;stop-color:#f4d255"
         offset="0.32298282"
         id="stop162" />
      <stop
         style="stop-opacity:1;stop-color:#f4d255"
         offset="0.324953"
         id="stop164" />
      <stop
         style="stop-opacity:1;stop-color:#f8df7f"
         offset="0.42164707"
         id="stop166" />
      <stop
         style="stop-opacity:1;stop-color:#f8df7f"
         offset="0.439637"
         id="stop168" />
      <stop
         style="stop-opacity:1;stop-color:#f4d255"
         offset="0.49719327"
         id="stop170" />
      <stop
         style="stop-opacity:1;stop-color:#f4d255"
         offset="0.50883"
         id="stop172" />
      <stop
         style="stop-opacity:1;stop-color:#f4d255"
         offset="0.93954108"
         id="stop174" />
      <stop
         style="stop-opacity:1;stop-color:#f4d255"
         offset="1"
         id="stop176" />
    </linearGradient>
    <clipPath
       clipPathUnits="userSpaceOnUse"
       id="clipPath188">
      <path
         d="M 0,99.213 H 226.772 V 0 H 0 Z"
         id="path186" />
    </clipPath>
  </defs>
  <sodipodi:namedview
     id="namedview4"
     pagecolor="#ffffff"
     bordercolor="#000000"
     borderopacity="0.25"
     inkscape:showpageshadow="2"
     inkscape:pageopacity="0.0"
     inkscape:pagecheckerboard="0"
     inkscape:deskcolor="#d1d1d1" />
  <g
     id="g8"
     inkscape:groupmode="layer"
     inkscape:label="ArtDruk_logo30"
     transform="matrix(1.3333333,0,0,-1.3333333,0,132.28347)">
    <g
       id="g10">
      <g
         id="g12">
        <g
           id="g18">
          <g
             id="g20">
            <path
               d="M 14.841,86.597 C 10.514,82.941 7.551,77.677 6.036,70.952 v 0 l -0.353,-1.57 h 10.506 l 0.314,0.835 c 1.615,4.308 3.576,7.377 5.828,9.123 v 0 c 2.245,1.74 4.851,2.586 7.966,2.586 v 0 c 3.865,0 6.959,-1.112 9.459,-3.399 v 0 c 1.966,-1.799 3.114,-3.814 3.503,-6.11 v 0 c 0.099,-0.584 0.162,-1.18 0.162,-1.801 v 0 c 0,-2.068 -0.581,-3.926 -1.777,-5.68 v 0 c -1.188,-1.743 -3.165,-3.214 -5.875,-4.373 v 0 c -0.163,-0.07 -0.34,-0.118 -0.506,-0.184 v 0 c -2.655,-1.054 -5.608,-1.607 -8.809,-1.607 v 0 h -1.287 v -9.713 l 1.218,-0.065 c 2.672,-0.14 5.014,-0.388 7.05,-0.73 v 0 c 2.454,-0.411 4.456,-0.963 5.952,-1.659 v 0 c 1.909,-0.891 3.545,-2.119 4.909,-3.637 v 0 c 0.538,-0.6 1.044,-1.234 1.493,-1.927 v 0 c 1.033,-1.597 1.557,-2.531 1.919,-4.287 v 0 c 0.262,-0.342 0.908,-1.152 1.188,-1.473 v 0 c 1.472,-1.692 3.312,-3.277 5.268,-4.384 v 0 c 1.337,-0.756 2.467,-1.111 3.926,-1.551 v 0 c 0.297,1.573 0.395,2.825 0.395,4.44 v 0 c 0,5.441 -1.822,10.422 -5.416,14.801 v 0 c -2.061,2.514 -4.612,4.558 -7.607,6.097 v 0 c 5.038,3.532 7.903,8.041 8.554,13.449 v 0 c 0.095,0.791 0.145,1.6 0.145,2.43 v 0 c 0,2.68 -0.561,5.302 -1.66,7.829 v 0 c -0.406,0.937 -0.882,1.862 -1.439,2.771 v 0 c -2.052,3.352 -4.985,6.05 -8.716,8.018 v 0 c -3.711,1.958 -7.765,2.951 -12.049,2.951 v 0 c -5.91,0 -11.109,-1.862 -15.456,-5.535"
               style="fill:url(#linearGradient44);stroke:none"
               id="path46" />
          </g>
        </g>
      </g>
    </g>
    <g
       id="g48">
      <g
         id="g50">
        <g
           id="g56">
          <g
             id="g58">
            <path
               d="m 3.131,32.671 0.28,-1.519 C 4.846,23.346 7.97,17.323 12.696,13.25 v 0 C 17.434,9.164 23.409,7.093 30.457,7.093 v 0 c 5.211,0 9.996,1.165 14.225,3.466 v 0 c 4.113,2.236 7.194,5.051 9.631,9.087 v 0 c -3.279,1.009 -6.287,2.59 -8.984,4.677 v 0 C 44.708,23.422 44.223,22.89 43.376,22.051 v 0 C 40.19,18.897 35.879,17.299 30.563,17.299 v 0 c -4.668,0 -8.547,1.345 -11.522,3.992 v 0 c -2.326,2.096 -4.155,5.604 -5.435,10.424 v 0 l -0.254,0.956 z"
               style="fill:url(#linearGradient84);stroke:none"
               id="path86" />
          </g>
        </g>
      </g>
    </g>
    <g
       id="g88">
      <g
         id="g90"
         clip-path="url(#clipPath94)">
        <g
           id="g96"
           transform="translate(71.9678,56.1088)">
          <path
             d="m 0,0 c 0.408,0.788 0.38,1.306 -0.408,1.306 h -0.788 c -0.19,0 -0.217,0.083 -0.163,0.187 l 0.163,0.373 c 0.055,0.124 0.109,0.145 0.272,0.145 h 3.37 C 2.691,2.011 2.773,1.887 2.691,1.7 L -2.963,-9.268 c -0.244,-0.477 -0.897,-1.617 -0.326,-1.617 0.435,0 1.685,0.809 2.011,1.078 0.109,0.083 0.164,0.062 0.245,0 l 0.299,-0.249 c 0.055,-0.041 0.082,-0.124 -0.027,-0.207 -0.136,-0.166 -2.664,-1.928 -4.404,-1.928 -0.353,0 -0.597,0.124 -0.597,0.601 0,0.311 0.679,1.617 1.005,2.239 z"
             style="fill:#ac7234;fill-opacity:1;fill-rule:nonzero;stroke:none"
             id="path98" />
        </g>
        <g
           id="g100"
           transform="translate(81.101,49.1425)">
          <path
             d="m 0,0 c 0.38,0.601 0.652,1.12 0.652,1.721 0,0.56 -0.272,1.223 -1.277,1.223 -2.501,0 -5.409,-4.375 -5.409,-6.344 0,-0.477 0.272,-0.726 0.734,-0.726 1.359,0 4.811,3.359 5.3,4.126 M 3.425,3.608 C 3.533,3.608 3.561,3.504 3.507,3.421 2.99,2.571 1.604,-0.29 1.468,-0.622 1.305,-0.975 0.163,-3.545 0.163,-3.732 c 0,-0.187 0.136,-0.249 0.299,-0.249 0.326,0 1.712,1.078 1.903,1.265 0.081,0.062 0.163,0.104 0.217,0.041 l 0.245,-0.207 c 0.081,-0.062 0.109,-0.104 0.054,-0.166 -0.299,-0.415 -2.664,-2.177 -4.213,-2.177 -0.326,0 -0.571,0.083 -0.571,0.353 0,0.311 0.272,0.953 1.305,3.151 l -0.136,0.042 c -1.141,-1.327 -3.887,-3.546 -5.817,-3.546 -0.625,0 -1.468,0.394 -1.468,1.327 0,3.027 4.458,7.506 7.774,7.506 1.142,0 1.658,-0.374 1.93,-0.705 l 0.517,0.559 c 0.081,0.083 0.163,0.146 0.272,0.146 z"
             style="fill:#ac7234;fill-opacity:1;fill-rule:nonzero;stroke:none"
             id="path102" />
        </g>
        <g
           id="g104"
           transform="translate(89.3912,51.4231)">
          <path
             d="M 0,0 H -1.902 C -2.066,0 -2.12,0.041 -2.066,0.166 l 0.218,0.456 c 0.054,0.104 0.136,0.145 0.299,0.145 H 0.408 L 1.821,3.172 C 1.957,3.38 2.039,3.421 2.256,3.483 2.555,3.545 3.262,3.753 3.479,3.836 3.642,3.898 3.778,3.96 3.887,3.96 4.05,3.96 4.105,3.836 3.914,3.545 L 2.12,0.767 h 2.773 c 0.136,0 0.19,-0.062 0.108,-0.228 L 4.757,0.104 C 4.73,0.041 4.621,0 4.512,0 H 1.74 l -2.637,-4.665 c -0.326,-0.581 -0.625,-1.099 -0.625,-1.327 0,-0.228 0.109,-0.352 0.353,-0.352 0.789,0 2.555,1.181 2.719,1.326 0.081,0.083 0.163,0.063 0.244,0 L 2.093,-5.266 C 2.175,-5.329 2.175,-5.37 2.12,-5.453 1.767,-5.785 -0.761,-7.506 -2.854,-7.506 c -0.679,0 -0.87,0.208 -0.87,0.498 0,0.311 0.136,0.664 0.299,0.975 z"
             style="fill:#ac7234;fill-opacity:1;fill-rule:nonzero;stroke:none"
             id="path106" />
        </g>
      </g>
    </g>
    <g
       id="g108">
      <g
         id="g110">
        <g
           id="g116">
          <g
             id="g118">
            <path
               d="m 64.387,80.616 c -0.009,0 -0.018,0.001 -0.027,0.001 v 0 c -0.871,0 -1.725,-0.04 -2.569,-0.101 v 0 c -0.074,-0.006 -0.147,-0.009 -0.22,-0.015 v 0 c -3.228,-0.252 -5.986,-0.87 -8.809,-2.006 v 0 c 1.099,-2.527 1.644,-5.228 1.644,-7.908 v 0 c 0,-0.83 -0.036,-1.509 -0.131,-2.301 v 0 c 0.735,0.444 1.224,0.702 1.996,1.039 v 0 c 0.089,0.039 0.177,0.079 0.266,0.115 v 0 c 0.521,0.219 1.05,0.412 1.589,0.583 v 0 c 0.219,0.069 0.444,0.123 0.666,0.185 v 0 c 0.359,0.099 0.72,0.193 1.086,0.272 v 0 c 0.255,0.055 0.513,0.104 0.773,0.149 v 0 c 0.38,0.067 0.765,0.121 1.155,0.167 v 0 c 0.225,0.026 0.449,0.057 0.677,0.076 v 0 c 0.624,0.052 1.255,0.088 1.901,0.088 v 0 h 0.003 c 0.001,0 0.002,0 0.003,0 v 0 c 0.646,0 1.277,-0.036 1.9,-0.088 v 0 c 0.229,-0.019 0.452,-0.05 0.678,-0.076 v 0 c 0.389,-0.046 0.774,-0.1 1.155,-0.167 v 0 c 0.259,-0.045 0.517,-0.094 0.772,-0.149 v 0 c 0.367,-0.079 0.728,-0.173 1.087,-0.272 v 0 c 0.222,-0.062 0.446,-0.116 0.664,-0.185 v 0 c 0.54,-0.171 1.07,-0.364 1.591,-0.583 v 0 c 0.089,-0.036 0.177,-0.076 0.265,-0.115 v 0 c 2.398,-1.048 4.608,-2.603 6.661,-4.69 v 0 c 0.467,-0.474 0.9,-0.965 1.315,-1.464 v 0 c 0.134,-0.162 0.261,-0.329 0.39,-0.493 v 0 c 0.257,-0.328 0.502,-0.66 0.738,-0.997 v 0 c 0.149,-0.216 0.3,-0.431 0.441,-0.65 v 0 c 0.2,-0.311 0.382,-0.628 0.565,-0.946 v 0 c 0.259,-0.455 0.5,-0.918 0.723,-1.39 v 0 c 0.108,-0.226 0.219,-0.451 0.318,-0.68 v 0 c 0.061,-0.141 0.112,-0.287 0.169,-0.43 v 0 h 10.565 c -1.245,4.854 -3.646,9.26 -7.198,13.155 v 0 c -5.376,5.873 -12.092,9.143 -19.987,9.761 v 0 c -0.073,0.006 -0.147,0.009 -0.22,0.015 v 0 c -0.845,0.061 -1.698,0.101 -2.569,0.101 v 0 c -0.009,0 -0.017,-0.001 -0.026,-0.001"
               style="fill:url(#linearGradient142);stroke:none"
               id="path144" />
          </g>
        </g>
      </g>
    </g>
    <g
       id="g146">
      <g
         id="g148">
        <g
           id="g154">
          <g
             id="g156">
            <path
               d="m 33.496,46.928 c 0.029,-0.374 0.067,-0.744 0.107,-1.113 v 0 c 0.043,-0.365 0.097,-0.728 0.152,-1.089 v 0 c 0.797,-5.436 2.978,-10.404 6.547,-14.83 v 0 c 0.469,-0.59 0.974,-1.167 1.496,-1.737 v 0 c 0.085,-0.093 0.157,-0.191 0.244,-0.283 v 0 c 1.111,-1.185 2.289,-2.255 3.528,-3.213 v 0 c 2.697,-2.087 5.694,-3.636 8.973,-4.645 v 0 c 3.034,-0.934 6.31,-1.41 9.817,-1.41 v 0 c 0.009,0 0.018,0 0.027,0 v 0 c 0.009,0 0.017,0 0.026,0 v 0 c 9.04,0 16.549,3.118 22.318,9.268 v 0 c 0.077,0.081 0.139,0.166 0.214,0.248 v 0 c 0.534,0.581 1.048,1.17 1.527,1.773 v 0 c 2.881,3.571 4.841,7.503 5.915,11.743 v 0 H 84.025 c -0.281,-0.754 -0.603,-1.495 -0.969,-2.223 v 0 h -10e-4 c -0.159,-0.312 -0.316,-0.625 -0.49,-0.934 v 0 C 81.844,37.208 81.02,36.042 80.099,34.985 v 0 C 78.627,33.294 76.907,31.883 74.95,30.776 v 0 C 72.658,29.48 70.175,28.651 67.542,28.283 v 0 c -1.029,-0.145 -2.08,-0.226 -3.155,-0.226 v 0 c -1.075,0 -2.126,0.081 -3.156,0.226 v 0 c -1.098,0.153 -2.161,0.405 -3.204,0.72 v 0 c -1.457,0.439 -2.867,1.017 -4.204,1.773 v 0 c -1.956,1.107 -3.677,2.518 -5.149,4.209 v 0 c -0.28,0.322 -0.535,0.673 -0.797,1.015 v 0 c -0.599,0.782 -1.168,1.597 -1.669,2.483 v 0 c -0.174,0.309 -0.331,0.622 -0.49,0.934 v 0 c -0.58,1.151 -0.8,1.521 -1.166,2.737 v 0 c -1.365,1.519 -3.315,3.254 -5.226,4.145 v 0 c -1.495,0.697 -3.416,1.109 -5.87,1.521 v 0 c 0.02,-0.446 0.004,-0.451 0.04,-0.892"
               style="fill:url(#linearGradient178);stroke:none"
               id="path180" />
          </g>
        </g>
      </g>
    </g>
    <g
       id="g182">
      <g
         id="g184"
         clip-path="url(#clipPath188)">
        <g
           id="g190"
           transform="translate(121.9104,34.6588)">
          <path
             d="m 0,0 h 12.768 c 5.347,0 9.439,-1.503 12.277,-4.512 2.51,-2.68 3.765,-6.044 3.765,-10.091 0,-3.528 -1.05,-6.386 -3.151,-8.574 -2.401,-2.543 -5.893,-3.815 -10.476,-3.815 H -0.123 c 1.037,0.683 1.556,2.201 1.556,4.554 V -4.224 C 1.433,-2.037 0.955,-0.629 0,0 m 18.17,-4.634 c -1.774,2.241 -3.765,3.363 -5.975,3.363 -1.009,0 -1.841,-0.308 -2.496,-0.923 C 9.044,-2.81 8.717,-3.665 8.717,-4.758 v -16.983 c 0,-2.598 1.377,-3.897 4.132,-3.897 2.156,0 4.025,0.902 5.608,2.708 1.8,2.051 2.7,4.826 2.7,8.327 0,4.102 -0.996,7.425 -2.987,9.969 m 12.973,-2.38 7.448,0.492 c 0.273,-0.438 0.491,-0.984 0.655,-1.641 0.245,-0.82 0.368,-2.653 0.368,-5.497 1.637,3.097 2.933,5.019 3.887,5.75 1.201,0.923 2.498,1.388 3.888,1.388 0.382,0 0.764,-0.027 1.147,-0.082 l -1.065,-4.062 c -0.818,0.493 -1.732,0.739 -2.742,0.739 -1.391,0 -2.578,-0.519 -3.56,-1.559 -1.037,-1.148 -1.555,-2.694 -1.555,-4.635 v -7.056 c 0,-1.914 0.559,-3.213 1.678,-3.897 H 31.266 c 1.064,0.656 1.596,1.955 1.596,3.897 v 12.307 c 0,1.996 -0.573,3.281 -1.719,3.856 m 42.239,-19.937 h -7.733 c -0.082,0.274 -0.15,0.588 -0.205,0.944 -0.055,0.574 -0.082,2.064 -0.082,4.471 -1.883,-2.434 -3.615,-4.034 -5.197,-4.8 -1.583,-0.765 -3.166,-1.148 -4.747,-1.148 -3.029,0 -4.543,1.573 -4.543,4.717 v 11.815 c 0,2.023 -0.56,3.336 -1.678,3.938 l 8.307,0.656 v -14.521 c 0,-2.325 0.928,-3.487 2.783,-3.487 1.637,0.383 2.906,1.271 3.806,2.666 0.846,1.285 1.269,2.803 1.269,4.553 v 5.292 c 0,1.587 -0.122,2.68 -0.368,3.282 -0.274,0.711 -0.723,1.231 -1.351,1.559 l 8.267,0.492 v -17.229 c 0,-1.395 0.491,-2.461 1.472,-3.2 m 28.313,-0.041 H 89.458 v 0.328 l -0.736,-0.779 c 1.856,0 2.783,0.848 2.783,2.543 0,1.176 -0.559,2.735 -1.677,4.677 -0.819,1.449 -1.897,3.008 -3.234,4.677 l -2.168,-2.059 v -5.982 c 0,-1.669 0.518,-2.803 1.554,-3.405 h -9.657 c 1.009,0.629 1.514,1.942 1.514,3.938 v 18.952 c 0,1.75 -0.259,2.954 -0.778,3.61 -0.245,0.301 -0.532,0.534 -0.859,0.698 l 8.226,0.492 v -17.557 l 6.506,6.317 c 0.873,0.847 1.309,1.586 1.309,2.216 0,0.492 -0.232,0.887 -0.695,1.189 h 7.285 c -0.574,-0.164 -1.16,-0.369 -1.761,-0.615 -1.937,-0.821 -3.737,-2.106 -5.401,-3.856 2.046,-2.325 3.751,-4.787 5.115,-7.385 0.627,-1.285 1.596,-3.186 2.905,-5.702 0.601,-1.094 1.269,-1.86 2.006,-2.297"
             style="fill:#e30613;fill-opacity:1;fill-rule:nonzero;stroke:none"
             id="path192" />
        </g>
        <g
           id="g194"
           transform="translate(83.1547,7.5847)">
          <path
             d="M 0,0 H -12.686 V 0.328 L -13.34,-0.41 c 0.927,0.109 1.643,0.458 2.148,1.045 0.505,0.588 0.757,1.307 0.757,2.154 0,1.204 -0.395,2.407 -1.187,3.611 -0.764,1.093 -1.691,1.969 -2.783,2.625 -0.927,0.574 -1.855,1.012 -2.783,1.312 -1.254,0.438 -2.755,0.657 -4.501,0.657 l -2.046,-5.825 c -0.218,-0.712 -0.409,-1.655 -0.573,-2.831 0,-1.094 0.355,-1.873 1.064,-2.338 h -6.384 c 1.228,0.766 2.224,2.147 2.988,4.144 l 7.202,19.034 c 0.409,1.066 0.614,1.887 0.614,2.461 0,0.602 -0.191,1.08 -0.573,1.435 h 10.312 c -0.382,-0.3 -0.613,-0.724 -0.695,-1.271 0.054,-0.328 0.245,-0.971 0.573,-1.928 L -2.455,3.487 C -1.855,1.764 -1.037,0.602 0,0 M -17.106,24.531 -20.871,13.12 c 1.658,0 2.913,-0.144 3.759,-0.431 0.839,-0.287 2.38,-1.237 4.61,-2.85 z M 2.088,20.06 9.536,20.552 c 0.272,-0.438 0.49,-0.984 0.655,-1.64 0.245,-0.821 0.368,-2.654 0.368,-5.498 1.637,3.098 2.933,5.019 3.887,5.75 1.201,0.923 2.497,1.388 3.888,1.388 0.382,0 0.764,-0.027 1.146,-0.082 l -1.063,-4.061 c -0.819,0.492 -1.733,0.738 -2.743,0.738 -1.391,0 -2.577,-0.519 -3.56,-1.559 -1.036,-1.148 -1.555,-2.694 -1.555,-4.635 V 3.897 C 10.559,1.983 11.118,0.684 12.237,0 H 2.211 c 1.064,0.656 1.595,1.955 1.595,3.897 v 12.307 c 0,1.996 -0.572,3.282 -1.718,3.856 M 36.3,3.815 35.236,0.82 c -2.51,-0.875 -4.733,-1.312 -6.671,-1.312 -1.882,0 -3.328,0.437 -4.337,1.312 -1.146,0.985 -1.719,2.557 -1.719,4.718 v 12.881 h -2.292 c 1.937,1.039 2.906,2.83 2.906,5.373 0,0.493 -0.041,0.972 -0.123,1.436 l -0.082,0.247 c 2.237,0.492 4.365,1.285 6.384,2.379 v -8.368 h 4.543 1.104 l -0.531,-1.19 c -0.3,0.082 -0.615,0.123 -0.942,0.123 H 29.302 V 6.687 c 0,-1.45 0.287,-2.558 0.86,-3.323 0.6,-0.876 1.432,-1.313 2.495,-1.313 1.31,0 2.524,0.588 3.643,1.764"
             style="fill:#063e85;fill-opacity:1;fill-rule:nonzero;stroke:none"
             id="path196" />
        </g>
      </g>
    </g>
  </g>
</svg>
